<svg width="24" height="24" viewBox="0 0 24 24" fill="none" xmlns="http://www.w3.org/2000/svg">
<path d="M12.0001 16.175L15.9001 12.3C16.0834 12.1166 16.3126 12.0208 16.5876 12.0125C16.8626 12.0041 17.1001 12.1 17.3001 12.3C17.4834 12.4833 17.5751 12.7166 17.5751 13C17.5751 13.2833 17.4834 13.5166 17.3001 13.7L12.7001 18.3C12.6001 18.4 12.4918 18.4708 12.3751 18.5125C12.2584 18.5541 12.1334 18.575 12.0001 18.575C11.8668 18.575 11.7418 18.5541 11.6251 18.5125C11.5084 18.4708 11.4001 18.4 11.3001 18.3L6.70011 13.7C6.51678 13.5166 6.42094 13.2875 6.41261 13.0125C6.40428 12.7375 6.50011 12.5 6.70011 12.3C6.88344 12.1166 7.11678 12.025 7.40011 12.025C7.68344 12.025 7.91678 12.1166 8.10011 12.3L12.0001 16.175ZM12.0001 10.175L15.9001 6.29996C16.0834 6.11663 16.3126 6.0208 16.5876 6.01246C16.8626 6.00413 17.1001 6.09996 17.3001 6.29996C17.4834 6.4833 17.5751 6.71663 17.5751 6.99996C17.5751 7.2833 17.4834 7.51663 17.3001 7.69996L12.7001 12.3C12.6001 12.4 12.4918 12.4708 12.3751 12.5125C12.2584 12.5541 12.1334 12.575 12.0001 12.575C11.8668 12.575 11.7418 12.5541 11.6251 12.5125C11.5084 12.4708 11.4001 12.4 11.3001 12.3L6.70011 7.69996C6.51678 7.51663 6.42094 7.28746 6.41261 7.01246C6.40428 6.73746 6.50011 6.49996 6.70011 6.29996C6.88344 6.11663 7.11678 6.02496 7.40011 6.02496C7.68344 6.02496 7.91678 6.11663 8.10011 6.29996L12.0001 10.175Z" fill="#191919"/>
</svg>
