<svg width="11" height="12" viewBox="0 0 11 12" fill="none" xmlns="http://www.w3.org/2000/svg">
<path d="M5.34774 10.2593L9.42084 6.20159C9.55929 6.06314 9.73075 5.98974 9.93524 5.98141C10.1397 5.97308 10.3195 6.04647 10.4746 6.20159C10.6195 6.34645 10.692 6.52209 10.692 6.72851C10.692 6.93491 10.6195 7.11054 10.4746 7.25541L5.98041 11.7496C5.88683 11.8432 5.78811 11.9092 5.68426 11.9477C5.58043 11.9862 5.46825 12.0054 5.34774 12.0054C5.22722 12.0054 5.11505 11.9862 5.01121 11.9477C4.90736 11.9092 4.80865 11.8432 4.71506 11.7496L0.220838 7.25541C0.0823709 7.11696 0.00897057 6.94549 0.000637232 6.74101C-0.0076961 6.53653 0.0657042 6.35672 0.220838 6.20159C0.365704 6.05672 0.541337 5.98429 0.747737 5.98429C0.954137 5.98429 1.12977 6.05672 1.27464 6.20159L5.34774 10.2593ZM5.34774 4.27854L9.42084 0.220837C9.55929 0.0823702 9.73075 0.00897057 9.93524 0.000637238C10.1397 -0.0076961 10.3195 0.0657035 10.4746 0.220837C10.6195 0.365704 10.692 0.541337 10.692 0.747737C10.692 0.954137 10.6195 1.12977 10.4746 1.27464L5.98041 5.76886C5.88683 5.86246 5.78811 5.92849 5.68426 5.96694C5.58043 6.0054 5.46825 6.02464 5.34774 6.02464C5.22722 6.02464 5.11505 6.0054 5.01121 5.96694C4.90736 5.92849 4.80865 5.86246 4.71506 5.76886L0.220838 1.27464C0.0823709 1.13619 0.00897057 0.96472 0.000637232 0.760237C-0.0076961 0.555753 0.0657042 0.375954 0.220838 0.220837C0.365704 0.0759535 0.541337 0.00351199 0.747737 0.00351199C0.954137 0.00351199 1.12977 0.0759535 1.27464 0.220837L5.34774 4.27854Z" fill="#FFB703"/>
</svg>
