<svg width="64" height="64" viewBox="0 0 64 64" fill="none" xmlns="http://www.w3.org/2000/svg">
<rect width="64" height="64" rx="32" fill="#002C22"/>
<path d="M41.553 29.2994C42.501 30.9374 43.869 32.3054 45.507 33.2534C47.097 34.1744 48.939 34.6994 50.907 34.6994V40.0994C49.014 40.0994 47.196 39.7754 45.507 39.1754C43.494 38.4674 41.664 37.3694 40.107 35.9714V40.0994H34.707V23.8994H50.907V29.2994H41.553Z" fill="#A4F4CF"/>
<path d="M29.2977 23.8994V40.0994H23.8977V35.9714C22.3407 37.3694 20.5107 38.4674 18.4977 39.1754C16.8087 39.7754 14.9907 40.0994 13.0977 40.0994V34.6994C15.0657 34.6994 16.9077 34.1744 18.4977 33.2534C20.1357 32.3054 21.5037 30.9374 22.4517 29.2994H13.0977V23.8994H29.2977Z" fill="#A4F4CF"/>
</svg>
