<?xml version="1.0" encoding="UTF-8"?>
<svg id="Livello_1" data-name="Livello 1" xmlns="http://www.w3.org/2000/svg" viewBox="0 0 300 300">
  <defs>
    <style>
      .cls-1 {
        fill: #ffb703;
      }

      .cls-2 {
        fill: #191919;
        stroke: #191919;
        stroke-miterlimit: 10;
      }
    </style>
  </defs>
  <circle class="cls-2" cx="150" cy="150" r="143.64"/>
  <g>
    <path class="cls-1" d="M201.21,113.19h-14.79c.34,2.4,.52,4.84,.52,7.34,0,28.51-23.11,51.62-51.62,51.62-7.98,0-15.54-1.81-22.28-5.04V73.95c6.75-3.23,14.3-5.04,22.28-5.04,18.04,0,33.92,9.26,43.15,23.28l10.54-10.54c-12.05-16.61-31.61-27.41-53.69-27.41-13.68,0-26.39,4.15-36.95,11.25v110.09c10.56,7.1,23.27,11.25,36.95,11.25,36.61,0,66.29-29.68,66.29-66.29,0-2.48-.14-4.93-.41-7.34Z"/>
    <rect class="cls-1" x="127.86" y="113.19" width="72.01" height="14.67"/>
    <path class="cls-1" d="M127.86,164.2c2.39,.4,4.84,.61,7.34,.61s4.95-.21,7.34-.61v-36.34h-14.67v36.34Z"/>
    <path class="cls-1" d="M127.86,193.78v51.98h14.67v-51.98c-2.41,.24-4.86,.36-7.33,.36s-4.92-.12-7.34-.36Z"/>
    <path class="cls-1" d="M161.67,189.24l25.14,56.53h14.67l-27.79-62.48c-3.79,2.33-7.82,4.33-12.02,5.95Z"/>
  </g>
</svg>